<svg xmlns="http://www.w3.org/2000/svg" width="36" height="30">
  <path transform="translate(13 2)" stroke="rgba(200, 200, 200, 0.1)" stroke-width="3" fill="none" d="M 20 8.66667L 21.2993 9.41625L 21.7317 8.66667L 21.2993 7.91708L 20 8.66667ZM 15 17.3333L 15 18.8333L 15.8663 18.8333L 16.2993 18.0829L 15 17.3333ZM 5 17.3333L 3.70072 18.0829L 4.13365 18.8333L 5 18.8333L 5 17.3333ZM 0 8.66667L -1.29928 7.91708L -1.73173 8.66667L -1.29928 9.41625L 0 8.66667ZM 5 0L 5 -1.5L 4.13365 -1.5L 3.70072 -0.749584L 5 0ZM 15 0L 16.2993 -0.749584L 15.8663 -1.5L 15 -1.5L 15 0ZM 18.7007 7.91708L 13.7007 16.5838L 16.2993 18.0829L 21.2993 9.41625L 18.7007 7.91708ZM 15 15.8333L 5 15.8333L 5 18.8333L 15 18.8333L 15 15.8333ZM 6.29928 16.5838L 1.29928 7.91708L -1.29928 9.41625L 3.70072 18.0829L 6.29928 16.5838ZM 1.29928 9.41625L 6.29928 0.749584L 3.70072 -0.749584L -1.29928 7.91708L 1.29928 9.41625ZM 5 1.5L 15 1.5L 15 -1.5L 5 -1.5L 5 1.5ZM 13.7007 0.749584L 18.7007 9.41625L 21.2993 7.91708L 16.2993 -0.749584L 13.7007 0.749584Z"/>
</svg>
