<svg xmlns="http://www.w3.org/2000/svg" fill-rule="evenodd" stroke-miterlimit="1.414" viewBox="0 0 16 16" clip-rule="evenodd" stroke-linejoin="round"><path fill-rule="nonzero" d="M15.988 5.443c-.004-.02-.007-.04-.012-.058l-.01-.033c-.006-.017-.012-.034-.02-.05-.003-.012-.01-.023-.014-.034l-.023-.045-.02-.032-.03-.04-.03-.03-.038-.03-.027-.025-.04-.032-.03-.023-.01-.01L8.38.116c-.23-.154-.53-.154-.76 0L.305 4.99.295 5l-.03.023c-.015.01-.028.02-.04.032l-.028.027-.034.037-.024.03-.03.04c-.01.01-.02.02-.02.03l-.03.04-.01.04c-.01.013-.01.03-.02.05l-.01.03c-.006.02-.01.04-.01.06v.03C0 5.5 0 5.53 0 5.56v4.875c0 .03.002.06.006.09l.007.03c.003.02.006.04.013.058l.01.033c.006.018.01.035.018.05l.015.033c0 .01.01.03.02.04l.02.03c.01.013.02.03.03.04l.02.03.03.035c.01.01.017.02.027.026l.04.033.03.02.01.01 7.31 4.877c.116.08.25.118.382.117.132 0 .264-.04.38-.116L15.685 11l.01-.01.03-.022.04-.03.028-.026.033-.037.024-.03.03-.04.02-.032.028-.046.015-.036.018-.05.01-.03.015-.057.005-.03c.002-.03.004-.06.004-.09V5.56c0-.03-.004-.06-.008-.09l-.007-.03zM8 9.626L5.568 8 8 6.374 10.432 8 8 9.626zM7.312 5.18l-2.98 1.993-2.406-1.61 5.386-3.59V5.18zM3.095 8l-1.72 1.15v-2.3L3.095 8zm1.237.828l2.98 1.993v3.21l-5.386-3.59 2.406-1.61zm4.355 1.993l2.98-1.99 2.407 1.61-5.387 3.59v-3.2zM12.905 8l1.72-1.15v2.3L12.905 8zm-1.237-.827L8.688 5.18V1.97l5.386 3.59-2.406 1.61z"/></svg>