<svg xmlns="http://www.w3.org/2000/svg" fill-rule="evenodd" stroke-miterlimit="1.41" viewBox="0 0 16 16" clip-rule="evenodd" stroke-linejoin="round"><path d="M8 0C5.83 0 5.55 0 4.7.05 3.85.1 3.27.22 2.76.42c-.53.2-.97.48-1.42.92-.44.45-.72.9-.92 1.42-.2.5-.33 1.1-.37 1.94C0 5.55 0 5.83 0 8s0 2.44.05 3.3c.04.85.17 1.43.37 1.94.2.53.48.97.92 1.42.45.44.9.72 1.42.92.5.2 1.1.33 1.94.37.85.04 1.13.05 3.3.05s2.44 0 3.3-.05c.85-.04 1.43-.17 1.94-.37.53-.2.97-.48 1.42-.92.44-.45.72-.9.92-1.42.2-.5.33-1.1.37-1.94.04-.86.05-1.13.05-3.3s0-2.44-.05-3.3c-.04-.85-.17-1.43-.37-1.94-.2-.53-.48-.97-.92-1.42-.45-.44-.9-.72-1.42-.92-.5-.2-1.1-.33-1.94-.37C10.44 0 10.17 0 8 0zm0 1.44c2.14 0 2.4 0 3.23.05.78.02 1.2.15 1.5.26.36.15.63.32.9.6.3.28.46.55.6.92.12.28.25.7.28 1.5.05.83.06 1.08.06 3.22s0 2.4-.05 3.23c-.02.78-.15 1.2-.26 1.5-.15.36-.32.63-.6.9-.28.3-.55.46-.92.6-.3.12-.7.25-1.5.28-.83.05-1.08.06-3.22.06s-2.4 0-3.23-.05c-.78-.02-1.2-.15-1.5-.26-.36-.15-.63-.32-.9-.6-.3-.28-.46-.55-.6-.92-.12-.3-.25-.7-.28-1.5-.05-.83-.06-1.08-.06-3.22s0-2.4.05-3.23c.02-.78.15-1.2.26-1.5.15-.36.32-.63.6-.9.28-.3.55-.46.92-.6.28-.12.7-.25 1.5-.28.83-.05 1.08-.06 3.22-.06zM8 3.9C5.73 3.9 3.9 5.72 3.9 8c0 2.27 1.83 4.1 4.1 4.1 2.27 0 4.1-1.83 4.1-4.1 0-2.27-1.83-4.1-4.1-4.1zm0 6.77c-1.47 0-2.67-1.2-2.67-2.67S6.53 5.33 8 5.33s2.67 1.2 2.67 2.67-1.2 2.67-2.67 2.67zm5.23-6.94c0 .53-.43.96-.96.96s-.96-.44-.96-.97.44-.96.97-.96.96.43.96.96z"/></svg>