<svg xmlns="http://www.w3.org/2000/svg" fill-rule="evenodd" stroke-miterlimit="1.41" viewBox="0 0 16 16" clip-rule="evenodd" stroke-linejoin="round"><path fill-rule="nonzero" d="M13.63 13.63h-2.37v-3.7c0-.9-.02-2.03-1.23-2.03-1.24 0-1.43.96-1.43 1.96v3.77H6.23V6H8.5v1.04h.04c.32-.6 1.1-1.23 2.25-1.23 2.4 0 2.8 1.6 2.8 3.68v4.2zM3.56 4.96c-.76 0-1.38-.6-1.38-1.37 0-.8.62-1.4 1.38-1.4.76 0 1.37.6 1.37 1.4 0 .72-.6 1.34-1.37 1.34zm1.2 8.68h-2.4V6h2.4v7.63zM14.8 0H1.18C.53 0 0 .52 0 1.15v13.7C0 15.48.53 16 1.18 16H14.8c.67 0 1.2-.52 1.2-1.15V1.15C16 .52 15.47 0 14.8 0z"/></svg>