<svg xmlns="http://www.w3.org/2000/svg" fill-rule="evenodd" stroke-miterlimit="1.41" viewBox="0 0 16 16" clip-rule="evenodd" stroke-linejoin="round"><path d="M11.82 12.63l-.27.45.8.4 2.74 1.37c.1.07.23.1.4.1.3 0 .42-.17.42-.48v-8.6l-4.15 6.76zm4.1-8.67L11.1 1.52c-.07-.03-.13-.03-.2-.04l-.04-.02c-.2 0-.37.1-.47.25l-.3.4-.5.8L7.72 6l1.9 3.07.5.8.5.82.6.9L15.95 4c.03-.03 0-.06 0-.08zM9.65 11L7.17 6.97l-.3-.48-.3-.5-.24-.4v4.82l3.32 1.66.5.25.5.25-.5-.8-.5-.8zM.75 1.68L.58 1.6l-.24-.04c-.2 0-.35.16-.35.42v10.17c0 .27.2.6.4.7l4.14 2.1c.1.05.2.07.3.07.24 0 .42-.2.42-.52V4s0-.03-.04-.04L.72 1.68z"/></svg>