<svg xmlns="http://www.w3.org/2000/svg" fill-rule="evenodd" stroke-miterlimit="1.41" viewBox="0 0 16 16" clip-rule="evenodd" stroke-linejoin="round"><path fill-rule="nonzero" d="M16 3.04c-.6.26-1.22.43-1.9.5.7-.4 1.2-1.04 1.46-1.8-.64.37-1.34.65-2.1.8-.6-.64-1.44-1.04-2.38-1.04-1.82 0-3.3 1.47-3.3 3.28 0 .26.04.5.1.75C5.15 5.4 2.73 4.08 1.1 2.1.84 2.58.68 3.15.68 3.75c0 1.14.58 2.14 1.46 2.73-.54-.02-1.04-.16-1.5-.4v.03c0 1.6 1.14 2.96 2.65 3.26-.3.08-.6.12-.9.12-.2 0-.4-.02-.6-.06.4 1.3 1.62 2.25 3.06 2.28-1.12.88-2.54 1.4-4.08 1.4-.27 0-.53 0-.8-.04 1.46.93 3.2 1.47 5.04 1.47 6.04 0 9.34-5 9.34-9.33v-.42C15 4.28 15.6 3.7 16 3.05z"/></svg>