<svg xmlns="http://www.w3.org/2000/svg" width="300" height="200"><path fill="#ffe876" fill-opacity=".377" d="M166.35 130.63L55 71.052 43.684 85.986 67.07 130.72l99.28-.09z"/><path fill="#a63171" d="M7.207 85.763L9.02 84.55l26.047 38.907-1.813 1.215L7.207 85.76z"/><path fill="#c5b462" d="M51.23 75.61l-4.355 5.834c.908.493 2.017.602 3.06.208 1.898-.72 2.855-2.842 2.135-4.742-.19-.504-.48-.942-.84-1.3zm1.076.17l.212.358 2.103-1.25-.21-.358-2.1 1.25zm.602 1.398l.077.408 2.404-.456-.08-.408-2.41.456zm.12 1.517l-.066.41 2.415.393.066-.41-2.415-.393zm-.458 1.478l-.202.362 2.122 1.19.203-.363-2.123-1.19zm-.896 1.255l-.314.27 1.588 1.844.314-.27-1.588-1.844zm-1.67.995l.867 2.29.39-.148-.86-2.288-.39.146zm-1.532.19l.033 2.448h.414l-.04-2.44-.42.01zm-1.507-.295l-.802 2.297.392.137.802-2.297-.392-.137z"/><path fill="#a63171" d="M19.238 56.94l1.996.885-12.448 28.09-1.995-.884 12.45-28.09z"/><path fill="#a63171" d="M19.14 58.112l1.272-1.774 16.98 12.18-1.273 1.773-16.98-12.17z"/><path fill="#bc579b" d="M45.24 130.62H28.484c-1.472 0-2.64-.454-2.64-1.003v-6.35c0-.56 1.193-1.004 2.64-1.004H45.24c1.472 0 2.64.453 2.64 1.003v6.36c-.025.55-1.193.993-2.64.993z"/><path fill="#a63171" stroke="#bc579b" stroke-width=".466" d="M8.517 83.213c1.02 0 1.845.83 1.845 1.845 0 1.02-.83 1.845-1.845 1.845-1.016 0-1.845-.83-1.845-1.845-.004-1.016.825-1.845 1.845-1.845zm11.533-26.9c1.02 0 1.846.83 1.846 1.844 0 1.02-.83 1.845-1.845 1.845-1.01 0-1.84-.83-1.84-1.845 0-1.016.83-1.845 1.85-1.845zM37.2 67.975c1.02 0 1.844.83 1.844 1.845 0 1.02-.83 1.847-1.845 1.847-1.02 0-1.85-.83-1.85-1.845-.01-1.015.82-1.844 1.84-1.844z" stroke-linecap="square"/><path fill="#a63171" d="M34.92 74.872l8.724 11.177L54.96 71.07c-.005-.007-.008-.015-.012-.022l-13.09-5.324c-1.858.668-3.55 1.866-4.83 3.56-1.272 1.683-1.964 3.624-2.11 5.582z"/><path fill="#4d4d4d" d="M85.515 130.624H66.333c-1.685 0-3.022-.956-3.022-2.114v-13.397c0-1.18 1.37-2.114 3.03-2.114h19.18c1.69 0 3.02.95 3.02 2.11v13.41c-.03 1.16-1.36 2.09-3.02 2.09z"/><path d="M66.506 113.673c-1.507 0-2.732.386-2.732.872v14.29c0 .92 1.225 1.66 2.732 1.66 1.506 0 2.73-.74 2.73-1.66v-14.29c0-.486-1.224-.872-2.73-.872zm19.904 8.254c0 4.316-3.502 7.82-7.82 7.82-4.315 0-7.82-3.504-7.82-7.82 0-4.317 3.505-7.82 7.82-7.82 4.318 0 7.82 3.503 7.82 7.82zm-7.82-4.692c-2.595 0-4.69 2.096-4.69 4.692s2.095 4.692 4.69 4.692c2.598 0 4.693-2.1 4.693-4.7s-2.095-4.69-4.692-4.69z"/><path fill="#ba9758" d="M78.59 126.767c-2.673 0-4.84-2.165-4.84-4.84s2.167-4.84 4.84-4.84c2.676 0 4.84 2.165 4.84 4.84 0 2.674-2.164 4.84-4.84 4.84z"/><path fill="#fefcfc" fill-opacity=".119" d="M81.542 118.103c-.818-.638-1.847-1.017-2.966-1.017-2.667 0-4.826 2.158-4.826 4.825 0 1.12.38 2.15 1.018 2.97l6.774-6.77z"/><path fill="#605c6c" d="M272.96 91.71h-73.675V13.372h73.676V91.71z"/><path fill="#fdf4af" fill-opacity=".561" d="M273.04 91.712l.072-15.54-19.34-33.48h-9.512l-28.09 49.02h56.87z"/><path fill="#8a8a8a" d="M268.07 39.445c-.522 0-1.044.522-1.044 1.044v2.41c-4.307-2.68-10.963-3.01-12.855-3.01v-.13c0-.26-.26-.46-.45-.39l-9.46 1.11c-.52.06-1.04.52-1.04 1.17s.52 1.17 1.18 1.17h9.33c.26 0 .46-.26.46-.46v-.328c1.83 0 9.207.33 12.79 3.46v45.16c0 .523.528 1.045 1.05 1.045.588 0 1.045-.52 1.045-1.045V40.49c.13-.458-.455-1.045-.98-1.045z"/><path fill="#9c9c9c" d="M199.288 89.01l3.875-1.927 9.304 4.63h2.887l-3.987-18.378v-6.69l6.416-.002-5.225-5.224h5.18l-6.234-6.37h-12.216v1.1h9.42l-4.995 4.17h-1.008l-3.417-2.86v1.39l1.767 1.46h-1.767v1.1h9.422l-4.997 4.12h-1.008l-3.417-2.82v1.4l1.767 1.46h-1.767v1.05h10.2l-6.188 2.8-4.012-1.768v1.23l2.684 1.174-2.684 1.216v1.22l4.013-1.84 6.51 2.843-6.6 3.3-3.92-1.936v1.21l2.64 1.316-2.64 1.308v1.267l3.92-1.925 7.93 3.892-7.93 3.897-3.92-1.93v1.233l2.69 1.333-2.68 1.33V89zm11.07-27.59l.046 4.17h-5.04l4.995-4.17zm-.09 6.094v5.04l-5.592-2.473 5.59-2.56zm3.665 23.694l-9.532-4.72 7.75-3.85 1.79 8.57zm-2.612-34.876l3.9 3.94h-3.89v-3.94zm0 5.27l3.9 3.942h-3.89v-3.942zm.55 19.523l-7.42-3.666 6.05-2.98 1.38 6.64zm-1.46-24.975v4.17h-5.04l5.04-4.17z"/><path fill="#4d4d4d" d="M272.96 65.33c-6.04.783-13.72 1.225-21.864 1.225-9.107 0-17.638-.552-23.938-1.517-3.067-.47-5.515-1.023-7.187-1.628-1.57-.57-2.35-1.156-2.35-1.583v-.468h-.93v.46c0 1.78 3.7 3.12 10.34 4.13 6.35.97 14.93 1.52 24.08 1.52 8.13 0 15.8-.44 21.86-1.218v-.944zm-.003 5.2c-6.04.783-13.72 1.224-21.863 1.224-9.107 0-17.64-.552-23.938-1.516-3.067-.47-5.515-1.024-7.187-1.63-1.58-.57-2.36-1.155-2.36-1.582v-.468h-.94v.468c0 1.782 3.7 3.12 10.34 4.137 6.35.972 14.93 1.527 24.08 1.527 8.12 0 15.8-.438 21.86-1.216v-.944z"/><path fill="#cc3f3f" d="M217.78 91.712h1.332v-.938h5.362v.938h1.33V80.77c-.07-.468-.448-.864-.952-.864h-6.19c-.486 0-.88.396-.88.864v10.942zm6.478-8.44c0 .233-.198.45-.45.45h-4.102c-.234 0-.45-.2-.45-.45V81.31c0-.234.198-.45.45-.45h4.102c.234 0 .45.198.45.45v1.96zm-.432-2.124h-4.102c-.09 0-.144.09-.144.144v1.96c0 .09.072.145.144.145h4.102c.09 0 .144-.09.144-.144V81.31c0-.108-.054-.162-.144-.162z"/><path fill="#bebebe" d="M220.996 18.847c-.915 0-1.76.26-2.464.68-1.056-1.665-2.91-2.792-5.023-2.792-2.61 0-4.82 1.666-5.61 4.037-.45-.164-.92-.258-1.41-.258-2.23 0-4.02 1.784-4.02 4.013 0 2.23 1.78 4.014 4.01 4.014h14.46c2.69 0 4.85-2.15 4.85-4.85.02-2.65-2.16-4.83-4.81-4.83z"/><path fill="#e1e1c3" d="M224.7 15.23c4.096 0 7.407 3.328 7.407 7.408 0 4.097-3.328 7.408-7.408 7.408s-7.41-3.328-7.41-7.408c-.02-4.08 3.31-7.408 7.41-7.408z"/><path fill="#bebebe" fill-opacity=".172" d="M221.66 17.768c1.456 0 2.632 1.182 2.632 2.63 0 1.455-1.182 2.63-2.63 2.63-1.45 0-2.632-1.18-2.632-2.63-.006-1.448 1.176-2.63 2.63-2.63z"/><path fill="#8a8a8a" d="M239.106 31.09c.425-.79.667-1.7.667-2.61 0-3.063-2.487-5.58-5.58-5.58-2.184 0-4.126 1.274-5.035 3.154-.88-.91-2.093-1.425-3.397-1.425-1.09 0-2.09.36-2.88.97-.79-2.89-3.39-4.98-6.52-4.98-3.7 0-6.73 3.03-6.73 6.73 0 1.39.43 2.7 1.12 3.79l28.36-.06z"/><path fill="#bebebe" stroke="#bebebe" stroke-width="1.596" d="M105.84 128.035v-2.91h52.95v2.91h-52.95z" stroke-linecap="round" stroke-linejoin="round"/><path fill="#8a8a8a" stroke="#8a8a8a" stroke-width="1.596" d="M158.784 123.49h-52.95V87.12h52.95v36.37z" stroke-linecap="round" stroke-linejoin="round"/><path fill="#f1cf40" d="M157.367 122.504H107.26V88.086h50.107v34.418z"/><path fill="#8a8a8a" d="M134.012 115.768h-25.227V90.54h25.227v25.228z"/><path fill="#c1281a" d="M112.467 94.847v-.888h3.052v.88h-3.06z"/><path fill="#a6ae31" d="M111.37 94.376v-.888h6.06v.888h-6.06zm1.71 13.744v-.887h6.06v.888h-6.06z"/><path fill="#8c2018" d="M113.08 102.28v-.89h8.27v.89h-8.27zm0 9.873v-.888h9.868v.888h-9.87z"/><path fill="#f1cf40" d="M111.37 99.324v-.888h6.06v.888h-6.06zm-.582 11.256v-.888h6.06v.888h-6.06z"/><path fill="#a6ae31" d="M111.37 95.752v-.888h7.353v.888h-7.352zm1.707 4.962v-.89h7.353v.89h-7.353zm2.143 2.884v-.888h7.354v.888h-7.353zm0 2.992v-.888h7.354v.888h-7.353z"/><path fill="#8c2018" d="M115.52 106.926v-.888h3.052v.888h-3.053z"/><path fill="#a6ae31" d="M111.37 97.146v-.888h7.352v.888h-7.353z"/><path fill="#bebebe" d="M108.785 90.54v-.887h25.227v.888h-25.227z"/><path fill="#e7253a" d="M111.79 91.703c.15 0 .274.124.274.276 0 .15-.124.27-.275.27-.16 0-.28-.13-.28-.28 0-.16.12-.28.27-.28z"/><path fill="#f8fbcb" d="M112.554 91.703c.152 0 .275.124.275.276 0 .15-.13.27-.28.27-.15 0-.28-.13-.28-.28 0-.16.12-.28.27-.28z"/><path fill="#57a32b" d="M113.313 91.703c.152 0 .276.124.276.276 0 .15-.13.27-.28.27-.15 0-.28-.13-.28-.28 0-.16.12-.28.27-.28z"/><path fill="#5bcfbf" d="M154.516 120.486H129.29V95.26h25.226v25.226z"/><path fill="#bebebe" d="M129.29 95.26v-.89h25.226v.89H129.29z"/><path fill="#e7253a" d="M129.85 94.54c.154 0 .277.124.277.275 0 .153-.124.276-.276.276-.15 0-.27-.12-.27-.27 0-.15.13-.27.28-.27z"/><path fill="#f8fbcb" d="M130.616 94.54c.152 0 .276.124.276.275 0 .153-.124.276-.276.276-.15 0-.275-.12-.275-.27 0-.15.13-.27.28-.27z"/><path fill="#57a32b" d="M131.376 94.54c.152 0 .275.124.275.275 0 .153-.12.276-.27.276-.15 0-.27-.12-.27-.27 0-.15.13-.27.28-.27z"/><path d="M145.655 117.27h-7.504c-.66 0-1.18-1.04-1.18-2.302v-14.58c0-1.284.54-2.302 1.19-2.302h7.51c.66 0 1.19 1.04 1.19 2.3v14.604c-.01 1.26-.532 2.28-1.18 2.28z"/><path fill="#fefcfc" d="M146.038 115.534h-8.27V99.32h8.27v16.215z"/><path fill="#ff7d2a" d="M145.58 106.907h-7.353V99.82h7.352v7.087z"/><path fill="#8a8a8a" d="M138.227 108.24v-.736h7.352v.737h-7.36zm0 1.452v-.737h7.352v.737h-7.36zm-.005 3.544v-2.99h3.052v2.99h-3.052z"/><path fill="#fff" fill-opacity=".253" d="M142.384 88.09H107.25v29.844l35.134-29.843z"/><path fill="#fff" fill-opacity=".253" d="M116.98 88.09h-9.73v8.266l9.73-8.265z"/><path fill="#a68131" d="M157.468 138.98H37.762c-10.52 0-18.863-.448-18.863-.99v-6.283c0-.553 8.52-.992 18.86-.992h119.7c10.52 0 18.86.448 18.86.992v6.29c-.18.545-8.53.983-18.87.983z"/><path fill="#a68131" stroke="#a68131" stroke-width=".976" d="M160.032 197.12h-3.078v-58.145h3.078v58.144zm-119.702-.006h-3.078V138.97h3.08v58.144z" stroke-linecap="round" stroke-linejoin="round"/><path fill="#9b133a" d="M200.98 91.72h-3.932V13.376h3.933V91.72z"/><path fill="#9b133a" d="M197.06 13.606V9.672h78.342v3.934h-78.34z"/><path fill="#9b133a" d="M271.456 13.6h3.933v78.34h-3.94V13.6z"/><path fill="#fff" fill-opacity=".253" d="M248.316 13.373h-47.234v40.122l47.234-40.122z"/><path fill="#9b133a" d="M234.265 10.9h3.933v83.297h-3.933V10.9z"/><path fill="#9b133a" d="M275.383 50.582v3.933H197.04v-3.933h78.343zm-.013 39.91v3.933h-78.342v-3.933h78.342z"/><path fill="#a68131" d="M234.517 81.946c-2.625.388-4.687 3.88-4.687 8.052v3.783c0 .78-.5 1.56-1 1.56h-28.058c-.5 0-1-.77-1-1.55v-3.88c0-4.07-2-7.66-4.624-7.95-2.937-.39-5.437 3.4-5.437 7.76v69.85h10v-47.25c0-.77.5-1.55 1-1.55h28.06c.5 0 1 .78 1 1.56v47.246h10V89.71c.13-4.463-2.31-8.05-5.25-7.76z"/><path fill="#a68131" d="M229.775 159.597h-40.06v37.522h10v-29.29c0-.38.5-.75 1-.75h28.06c.563 0 1 .37 1 .75v29.24h10v-37.52c0 .04-10 .04-10 .04z"/><path fill="#3a8686" d="M233.734 159.57H195.67c-3.344 0-5.997-.49-5.997-1.085v-6.878c0-.605 2.71-1.085 5.998-1.085h38.07c3.35 0 6 .49 6 1.086v6.887c-.06.595-2.71 1.075-6 1.075z"/><path fill="#a68131" d="M239.778 128.476h-10.012c0 5.108-6.707 9.23-15.017 9.23-8.31 0-15.02-4.122-15.02-9.23h-10.01c0 8.493 11.21 15.386 25.03 15.386 13.81 0 25.02-6.893 25.02-15.386z"/></svg>