<svg xmlns="http://www.w3.org/2000/svg" width="752" height="500" xmlns:xlink="http://www.w3.org/1999/xlink"><defs><filter id="c" width="1.306" height="1.232" x="-.153" y="-.116" color-interpolation-filters="sRGB"><feGaussianBlur stdDeviation="18.194"/></filter><filter id="d" width="1.139" height="1.105" x="-.07" y="-.053" color-interpolation-filters="sRGB"><feGaussianBlur stdDeviation="8.27"/></filter><linearGradient id="a"><stop offset="0"/><stop offset="1" stop-opacity="0"/></linearGradient><linearGradient id="b" x2="1" y1=".5" y2=".5" xlink:href="#a"/></defs><path fill="none" d="M-1-1h754v557H-1z"/><path fill="#3E3B56" stroke="null" d="M76.814 68.98h630v446.006h-630V68.98z"/><g fill-rule="evenodd" stroke="null"><path fill="url(#b)" d="M50.833 284.73l9.484-17.07s1.9-8.85 5.06-10.75c3.16-1.89 6.96.637 6.96.637l7.59-12.01.64-8.848 1.27-8.85 3.17-7.59v-7.59l-2.52-5.06-6.32-1.27h-9.48s-2.52 4.42-5.05 5.06c-2.52.63-10.74 5.69-10.74 5.69l-8.85 6.96-7.58 5.69h-15.85l-6.95-5.68 5.06-10.74 6.955 1.27h7.594v-8.85l3.79-5.68 10.75-8.23 18.33-11.37 28.453 1.27 7.58-4.42 22.13 1.9 5.06-5.06.63-8.22 3.16-6.32 1.89-9.49-1.27-3.8 15.17-1.263 17.7 3.8 5.06 6.96-.64 13.9.63 8.22s.64 1.9 0 5.06c-.63 3.16-6.95 1.26-6.95 1.26l-.63 10.74h-9.48s-3.79-1.9-3.79.635 6.96 6.96 6.96 6.96l7.59 6.96-5.69 30.35 20.23 16.44 14.54 10.12 10.75 9.48v7.59l-4.43 6.95-3.78 3.16h-6.95v-5.73l-3.16-5.69-6.32 1.89s-3.16 4.43-5.05 1.27c-1.9-3.16-8.22-8.85-8.22-8.85s-6.32-4.43-8.85-6.95c-2.52-2.53-9.48 13.904-9.48 13.904l-2.52 8.22-6.32 12.65 8.22 8.22 6.32 9.48 5.06 5.06 8.22 6.33 12.64 12.01 4.43 2.53 10.11 11.385 5.06 3.796 8.22 6.33s4.43 1.26 4.43 4.42v8.86l7.59 2.53 6.95-1.26-.63 5.696-13.91 5.06-7.58 1.9-7.59 7.582h-7.59l-.63-7.59-6.96-.63-6.32-10.75-3.16-5.06-4.42-11.38-9.48-3.79s-10.75-5.06-12.01-7.59c-1.265-2.53-3.797-10.115-3.797-10.115l-5.695-4.425s-5.06-2.53-7.58-5.06c-2.53-2.538-5.694-5.7-8.22-7.59-2.534-1.9-6.32-4.43-6.32-4.43l-3.8 8.214-2.53 6.323-2.53 8.85s.63 1.9-4.427 6.32c-5.06 4.42-10.75 6.95-10.75 6.95l-8.244 8.822-6.96 6.95-5.69 8.85-6.95 8.22-7.585 9.49-2.53 6.953-6.33 8.225-7.59-2.53-5.06-.63 6.95 11.38.63 5.06-14.54-5.7-6.955-12.01s-3.16 0-5.06-3.16c-1.9-3.16-5.694-6.956-5.694-6.956l-.64-1.89 4.43-1.9 1.9-6.95s-2.53-3.79 0-4.43c2.53-.63 9.48-8.85 9.48-8.85l18.33-14.534 6.32-6.95 1.27-5.06 9.49-3.79 3.16-12.01 7.6-10.135 12.01-19.6-9.48-10.11-8.857-8.21-12-6.36-.07-.01z" opacity=".7" filter="url(#c)"/><path d="M54.566 289.198l9.484-17.07s1.897-8.85 5.06-10.748c3.16-1.897 6.953.632 6.953.632l7.586-12.02.63-8.85 1.27-8.85 3.16-7.59v-7.59l-2.53-5.05-6.33-1.27h-9.49s-2.53 4.42-5.05 5.06c-2.53.63-10.75 5.69-10.75 5.69l-8.85 6.95-7.59 5.69h-15.8l-6.95-5.69 5.06-10.75 6.95 1.26h7.58v-8.85l3.79-5.69 10.75-8.23 18.34-11.38 28.45 1.27 7.58-4.43 22.13 1.9 5.06-5.05.64-8.22 3.16-6.32 1.9-9.49-1.27-3.79 15.17-1.26 17.7 3.79 5.06 6.95-.63 13.92.63 8.21s.63 1.9 0 5.06c-.64 3.16-6.96 1.265-6.96 1.265l-.64 10.746h-9.49s-3.8-1.9-3.8.634 6.95 6.95 6.95 6.95l7.58 6.96-5.69 30.345 20.23 16.443 14.55 10.12 10.71 9.45v7.58l-4.42 6.954-3.8 3.16h-6.95v-5.69l-3.16-5.69-6.32 1.9s-3.16 4.42-5.06 1.26c-1.9-3.17-8.22-8.86-8.22-8.86s-6.33-4.43-8.85-6.96c-2.53-2.53-9.49 13.91-9.49 13.91l-2.53 8.22-6.32 12.68 8.22 8.22 6.32 9.48 5.06 5.06 8.22 6.32 12.63 12 4.42 2.53 10.13 11.39 5.06 3.79 8.22 6.32s4.43 1.26 4.43 4.42v8.86l7.59 2.53 6.96-1.27-.63 5.69-13.91 5.05-7.59 1.9-7.59 7.59h-7.59l-.63-7.59-6.95-.64-6.32-10.75-3.16-5.06-4.43-11.39-9.485-3.79s-10.75-5.05-12.01-7.58c-1.26-2.53-3.79-10.12-3.79-10.12l-5.68-4.43s-5.06-2.53-7.58-5.06c-2.53-2.53-5.69-5.69-8.22-7.59-2.53-1.9-6.32-4.43-6.32-4.43l-3.79 8.21-2.52 6.32-2.52 8.85s.632 1.89-4.427 6.32c-5.06 4.42-10.75 6.96-10.75 6.96l-8.22 8.85-6.96 6.95-5.69 8.85-6.955 8.22-7.58 9.48-2.526 6.96-6.33 8.21-7.59-2.52-5.06-.63 6.96 11.38.64 5.05L29.27 432l-6.93-12s-3.17 0-5.06-3.16c-1.9-3.165-5.69-6.96-5.69-6.96l-.64-1.89 4.423-1.9 1.898-6.95s-2.53-3.8 0-4.43c2.53-.64 9.49-8.86 9.49-8.86l18.34-14.54 6.32-6.95 1.26-5.06 9.48-3.794 3.16-12.01 7.59-10.11 12.02-19.59-9.49-10.118-8.85-8.22-12.04-6.32.01.055z" opacity=".6" filter="url(#d)"/><path stroke="#000" stroke-width="1.635" d="M58.94 291.386l9.485-17.07s1.89-8.852 5.05-10.75c3.16-1.896 6.95.633 6.95.633l7.58-12.01.63-8.85 1.26-8.85 3.16-7.59v-7.59l-2.53-5.06-6.33-1.27h-9.48s-2.53 4.42-5.06 5.06c-2.53.63-10.75 5.69-10.75 5.69l-8.86 6.95-7.59 5.692h-15.81l-6.95-5.688 5.06-10.75 6.96 1.26h7.58v-8.87l3.79-5.68 10.75-8.22 18.33-11.38 28.45 1.27 7.58-4.42 22.13 1.9 5.06-5.06.63-8.22 3.16-6.32 1.892-9.48-1.265-3.79 15.17-1.26 17.7 3.8 5.06 6.96-.63 13.91.63 8.22s.634 1.9 0 5.06c-.63 3.16-6.95 1.27-6.95 1.27l-.63 10.75h-9.48s-3.79-1.896-3.79.64 6.96 6.96 6.96 6.96l7.587 6.954-5.69 30.35L185.97 263l14.55 10.12 10.74 9.47v7.586l-4.43 6.95-3.79 3.16h-6.96v-5.69l-3.16-5.69-6.32 1.9s-3.17 4.425-5.06 1.264c-1.9-3.16-8.22-8.85-8.22-8.85s-6.33-4.42-8.86-6.95c-2.53-2.535-9.49 13.907-9.49 13.907l-2.53 8.22-6.32 12.645 8.22 8.214 6.32 9.48 5.06 5.06 8.22 6.32 12.65 12.01 4.43 2.53 10.13 11.38 5.06 3.78 8.22 6.33s4.42 1.27 4.42 4.43v8.85l7.58 2.53 6.96-1.266-.63 5.69-13.91 5.06-7.58 1.89-7.58 7.584h-7.58l-.63-7.588-6.95-.637-6.33-10.75-3.16-5.06-4.42-11.38-9.48-3.8s-10.74-5.06-12.01-7.59c-1.26-2.52-3.79-10.12-3.79-10.12l-5.686-4.43s-5.06-2.53-7.58-5.05c-2.523-2.54-5.685-5.7-8.21-7.59-2.53-1.89-6.323-4.43-6.323-4.43l-3.8 8.22-2.53 6.33-2.52 8.85s.63 1.89-4.43 6.32c-5.06 4.42-10.75 6.96-10.75 6.96l-8.27 8.85-6.94 6.96-5.69 8.85-6.95 8.22-7.58 9.48-2.522 6.95-6.32 8.21-7.58-2.53-5.06-.63 6.96 11.38.634 5.05-14.53-5.69-6.96-12.01s-3.16 0-5.06-3.16c-1.89-3.16-5.69-6.957-5.69-6.957l-.63-1.9 4.423-1.89 1.9-6.95s-2.52-3.796 0-4.424c2.54-.62 9.49-8.84 9.49-8.84l18.33-14.54 6.32-6.95 1.27-5.06 9.49-3.79 3.16-12.01 7.59-10.11L89.3 316.1l-9.49-10.11-8.85-8.22-12.05-6.34.026-.058z"/></g><text x="105.791" y="119.986" fill="#F9FFFA" stroke="#000" stroke-opacity="null" stroke-width="0" font-size="24" font-family="Space Mono, monospace">public class</text><text x="291.823" y="121.319" fill="#F1173E" stroke="#000" stroke-opacity="null" stroke-width="0" font-size="24" font-family="Space Mono, monospace">ScotlandYard</text><text x="476.348" y="119.986" fill="#F9FFFA" stroke="#000" stroke-opacity="null" stroke-width="0" font-size="24" font-family="Space Mono, monospace">{</text><text x="115.107" y="477.323" fill="#F9FFFA" stroke="#000" stroke-opacity="null" stroke-width="0" font-size="24" font-family="Space Mono, monospace">}</text><path fill="#999" stroke="null" d="M76.816 44.98h630v24h-630v-24z"/><ellipse cx="91.318" cy="57.317" fill="#FF4343" rx="6" ry="6"/><ellipse cx="113.317" cy="56.817" fill="#1DDC1D" rx="6" ry="6"/><ellipse cx="136.816" cy="57.817" fill="#FFB42B" rx="6" ry="6"/></svg>